<svg xmlns="http://www.w3.org/2000/svg" viewBox="0 0 1200 240" preserveAspectRatio="xMidYMid slice">
  <defs>
    <linearGradient id="skyGradient" x1="0%" y1="0%" x2="0%" y2="100%">
      <stop offset="0%" stop-color="#0b1733" stop-opacity="0.0" />
      <stop offset="40%" stop-color="#0b1733" stop-opacity="0.25" />
      <stop offset="100%" stop-color="#050b18" stop-opacity="0.6" />
    </linearGradient>
    <linearGradient id="windowGlow" x1="0%" y1="0%" x2="0%" y2="100%">
      <stop offset="0%" stop-color="#5da8ff" stop-opacity="0.9" />
      <stop offset="100%" stop-color="#3b82f6" stop-opacity="0.0" />
    </linearGradient>
  </defs>
  <rect width="1200" height="240" fill="url(#skyGradient)" />
  <g fill="#0d182e">
    <rect x="20" y="120" width="80" height="120" />
    <rect x="110" y="90" width="70" height="150" />
    <rect x="200" y="100" width="110" height="140" />
    <rect x="330" y="70" width="90" height="170" />
    <rect x="430" y="110" width="70" height="130" />
    <rect x="510" y="80" width="120" height="160" />
    <rect x="650" y="130" width="90" height="110" />
    <rect x="760" y="60" width="100" height="180" />
    <rect x="880" y="105" width="120" height="135" />
    <rect x="1010" y="85" width="80" height="155" />
    <rect x="1105" y="120" width="70" height="120" />
  </g>
  <g fill="url(#windowGlow)">
    <rect x="40" y="160" width="8" height="60" />
    <rect x="72" y="150" width="6" height="70" />
    <rect x="127" y="130" width="6" height="80" />
    <rect x="210" y="145" width="7" height="75" />
    <rect x="250" y="140" width="7" height="80" />
    <rect x="360" y="120" width="8" height="90" />
    <rect x="470" y="150" width="6" height="70" />
    <rect x="535" y="120" width="8" height="100" />
    <rect x="600" y="110" width="6" height="110" />
    <rect x="672" y="160" width="6" height="60" />
    <rect x="790" y="115" width="7" height="95" />
    <rect x="820" y="100" width="7" height="110" />
    <rect x="920" y="150" width="6" height="70" />
    <rect x="955" y="135" width="7" height="85" />
    <rect x="1045" y="120" width="6" height="90" />
    <rect x="1130" y="155" width="6" height="65" />
  </g>
</svg>
